<svg width="181" height="160" viewBox="0 0 181 160" fill="none" xmlns="http://www.w3.org/2000/svg">
<path d="M3.64472e-07 74.4282L11.8045 -3.65706e-06H24.0091L14.1053 62.8238H16.3062L26.31 -3.65706e-06H38.6146L28.6108 62.8238H30.9117L40.9155 -3.65706e-06H53.1201L41.3157 74.4282H3.64472e-07ZM60.6917 74.4282L67.9945 29.6112L56.2901 74.4282H43.9854L55.7899 -3.65706e-06H66.8941L59.6914 44.2167L71.2958 -3.65706e-06H83.6004L71.7959 74.4282H60.6917ZM107.702 11.4043H102.1L92.0958 74.4282H79.8912L89.895 11.4043H84.3929L86.1936 -3.65706e-06H109.502L107.702 11.4043ZM99.9128 74.4282L111.717 -3.65706e-06H137.027L135.226 11.5044H122.221L119.72 27.7105H125.122C130.224 27.7105 133.726 31.0117 132.625 37.6142L128.324 64.6245C127.223 71.6271 123.522 74.4282 118.32 74.4282H99.9128ZM113.718 64.8246H114.618C115.919 64.8246 116.219 64.0243 116.419 62.9238L120.221 39.8151C120.421 38.4145 120.121 37.8143 118.92 37.8143H118.02L113.718 64.8246ZM144.741 74.4282L146.141 61.0231H141.94L139.139 74.4282H128.435L146.241 -3.65706e-06H161.847L156.545 74.4282H144.741ZM144.241 50.119H147.242L150.043 21.9083L144.241 50.119ZM15.6059 140.224C16.7063 140.224 16.9064 139.424 17.1065 138.224L20.6078 116.415H32.6124L29.111 138.224C28.1106 144.526 25.5097 151.128 16.0061 151.128H14.1053C4.20159 151.128 0.800304 145.426 2.20083 136.623L9.90375 88.5047C11.2042 80.3016 14.7056 75.2997 24.0091 75.2997H26.0099C34.413 75.2997 38.4146 80.0015 37.2141 87.6044L34.1129 107.012H22.1084L25.1095 88.2046C25.4096 86.3039 24.9094 85.9037 24.1091 85.9037C23.1088 85.9037 22.8086 86.604 22.6086 87.9045L14.6055 137.923C14.3054 139.824 14.7056 140.224 15.6059 140.224ZM62.544 87.4043H56.9419L46.9381 150.428H34.7335L44.7373 87.4043H39.2352L41.0359 76H64.3447L62.544 87.4043ZM66.8324 150.428L68.2329 137.023H64.0313L61.2302 150.428H50.5262L68.3329 76H83.9388L78.6368 150.428H66.8324ZM66.3322 126.119H69.3333L72.1344 97.9083L66.3322 126.119ZM104.086 119.617H97.383L92.5812 150.428H80.2765L92.181 76H109.388C114.69 76 118.391 78.9011 117.291 85.9037L113.589 109.713C112.489 116.715 109.087 119.617 104.086 119.617ZM102.885 85.6036L99.0836 109.513H99.984C100.984 109.513 101.485 109.213 101.785 107.712L104.986 87.6044C105.186 86.2039 104.986 85.6036 103.785 85.6036H102.885ZM110.562 138.824C111.062 136.923 112.163 133.822 113.963 124.818C115.464 117.216 117.965 102.71 122.267 76H148.577L138.673 138.824H141.374L138.173 159.131H127.269L128.669 150.428H117.565L116.264 159.131H105.46L108.661 138.824H110.562ZM121.466 139.124H126.468L134.671 87.5044H131.37C128.269 107.112 126.168 118.816 124.768 125.619C123.367 132.621 122.367 136.523 121.466 139.124ZM157.378 140.224C158.479 140.224 158.679 139.424 158.879 138.224L162.38 116.415H174.385L170.883 138.224C169.883 144.526 167.282 151.128 157.779 151.128H155.878C145.974 151.128 142.573 145.426 143.973 136.623L151.676 88.5047C152.977 80.3016 156.478 75.2997 165.782 75.2997H167.782C176.185 75.2997 180.187 80.0015 178.987 87.6044L175.885 107.012H163.881L166.882 88.2046C167.182 86.3039 166.682 85.9037 165.882 85.9037C164.881 85.9037 164.581 86.604 164.381 87.9045L156.378 137.923C156.078 139.824 156.478 140.224 157.378 140.224Z" fill="#FEF2E2"/>
</svg>
