<svg width="187" height="47" viewBox="0 0 187 47" fill="none" xmlns="http://www.w3.org/2000/svg">
<path d="M4.81386e-05 41.4656L6.51528 0.3865H13.2514L7.7852 35.0608H8.99991L14.5213 0.3865H21.3126L15.7912 35.0608H17.0611L22.5825 0.3865H29.3186L22.8034 41.4656H4.81386e-05ZM33.4976 41.4656L37.5282 16.7298L31.0682 41.4656H24.2769L30.7921 0.3865H36.9209L32.9455 24.791L39.3503 0.3865H46.1416L39.6263 41.4656H33.4976ZM59.4438 6.68088H56.3518L50.8304 41.4656H44.0944L49.6157 6.68088H46.579L47.5728 0.3865H60.4377L59.4438 6.68088ZM55.1449 41.4656L61.6601 0.3865H75.6292L74.6354 6.73609H67.4576L66.0772 15.6807H69.0588C71.8747 15.6807 73.8072 17.5028 73.1998 21.1469L70.8256 36.0547C70.2183 39.9196 68.1754 41.4656 65.3042 41.4656H55.1449ZM62.7644 36.1651H63.2613C63.9791 36.1651 64.1447 35.7234 64.2552 35.116L66.3533 22.3616C66.4637 21.5886 66.2981 21.2573 65.6355 21.2573H65.1386L62.7644 36.1651ZM79.8867 41.4656L80.6597 34.067H78.3407L76.7948 41.4656H70.8869L80.7149 0.3865H89.3283L86.402 41.4656H79.8867ZM79.6107 28.0486H81.2671L82.8131 12.4783L79.6107 28.0486ZM95.6507 35.8338C96.2581 35.8338 96.3685 35.3921 96.4789 34.7295L98.4114 22.6929H105.037L103.105 34.7295C102.552 38.208 101.117 41.8521 95.8716 41.8521H94.8225C89.3563 41.8521 87.4791 38.7049 88.2521 33.8461L92.5035 7.28823C93.2213 2.76069 95.1538 1.30703e-06 100.289 1.30703e-06H101.393C106.031 1.30703e-06 108.239 2.59505 107.577 6.79131L105.865 17.5028H99.2396L100.896 7.12259C101.062 6.07353 100.786 5.85267 100.344 5.85267C99.7918 5.85267 99.6261 6.23917 99.5157 6.95695L95.0986 34.5639C94.9329 35.6129 95.1538 35.8338 95.6507 35.8338ZM121.557 6.68088H118.465L112.944 41.4656H106.208L111.729 6.68088H108.692L109.686 0.3865H122.551L121.557 6.68088ZM123.924 41.4656L124.697 34.067H122.378L120.832 41.4656H114.924L124.752 0.3865H133.366L130.439 41.4656H123.924ZM123.648 28.0486H125.304L126.85 12.4783L123.648 28.0486ZM144.485 24.4597H140.786L138.136 41.4656H131.344L137.915 0.3865H147.412C150.338 0.3865 152.381 1.9877 151.773 5.85267L149.731 18.9936C149.123 22.8585 147.246 24.4597 144.485 24.4597ZM143.823 5.68703L141.725 18.8831H142.221C142.774 18.8831 143.05 18.7175 143.215 17.8893L144.982 6.79131C145.093 6.01831 144.982 5.68703 144.32 5.68703H143.823ZM148.06 35.0608C148.336 34.0117 148.943 32.3001 149.937 27.3309C150.765 23.1346 152.146 15.1286 154.52 0.3865H169.041L163.575 35.0608H165.066L163.299 46.2692H157.281L158.054 41.4656H151.925L151.207 46.2692H145.244L147.011 35.0608H148.06ZM154.078 35.2264H156.839L161.366 6.73609H159.544C157.833 17.558 156.673 24.018 155.9 27.7726C155.127 31.6375 154.575 33.7909 154.078 35.2264ZM173.899 35.8338C174.506 35.8338 174.617 35.3921 174.727 34.7295L176.66 22.6929H183.285L181.353 34.7295C180.801 38.208 179.365 41.8521 174.12 41.8521H173.071C167.605 41.8521 165.727 38.7049 166.5 33.8461L170.752 7.28823C171.47 2.76069 173.402 1.30703e-06 178.537 1.30703e-06H179.641C184.279 1.30703e-06 186.488 2.59505 185.825 6.79131L184.114 17.5028H177.488L179.144 7.12259C179.31 6.07353 179.034 5.85267 178.592 5.85267C178.04 5.85267 177.874 6.23917 177.764 6.95695L173.347 34.5639C173.181 35.6129 173.402 35.8338 173.899 35.8338Z" fill="#FEF2E2"/>
</svg>
