<svg width="64" height="64" viewBox="0 0 64 64" xmlns="http://www.w3.org/2000/svg">
  <defs>
    <linearGradient id="bg" x1="0%" y1="0%" x2="100%" y2="100%">
      <stop offset="0%" stop-color="#f97316"/>
      <stop offset="50%" stop-color="#ec4899"/>
      <stop offset="100%" stop-color="#8b5cf6"/>
    </linearGradient>
    <radialGradient id="glow" cx="50%" cy="50%" r="50%">
      <stop offset="0%" stop-color="rgba(255,255,255,0.3)"/>
      <stop offset="100%" stop-color="rgba(255,255,255,0)"/>
    </radialGradient>
    <filter id="shadow">
      <feDropShadow dx="0" dy="1" stdDeviation="1.5" flood-color="#00000040"/>
    </filter>
  </defs>

  <rect width="64" height="64" rx="14" fill="url(#bg)"/>
  <rect width="64" height="64" rx="14" fill="url(#glow)">
    <animate attributeName="opacity" values="0.4;0.8;0.4" dur="3s" repeatCount="indefinite"/>
  </rect>

  <g transform="translate(9, 8) scale(0.63)" filter="url(#shadow)">
    <path fill-rule="evenodd" clip-rule="evenodd" d="M55.0342 0.0222229C57.0434 -0.130715 59.4534 0.511654 61.042 1.76636C63.6393 3.81773 64.1285 6.47428 64.5371 9.53199C67.3057 10.3797 70.1962 11.6038 73.001 12.4461C70.4386 13.2607 67.9196 14.1682 65.3652 15.0046C65.6034 15.9978 65.8791 18.0851 66.041 19.1336L67.2754 27.2068L68.7217 36.447C69.0005 38.2635 69.4264 40.503 69.4287 42.3054C69.4326 46.5076 67.3998 50.3589 64.4707 53.283C61.2012 56.5212 56.9422 58.5728 52.3721 59.1111C50.837 59.2765 48.9859 59.2267 47.415 59.2244C45.9836 63.3912 44.4538 67.5476 43.0537 71.7175C41.7508 67.6118 39.9606 63.3335 38.6787 59.2234L0 59.2312C1.5837 57.9133 3.71522 56.3691 5.37109 55.0974L43.7686 25.6062C44.688 20.4473 45.3665 15.2064 46.2529 10.0378C46.488 8.66708 46.6412 7.13651 47.0586 5.81617C47.4073 4.69819 47.9827 3.66361 48.748 2.77711C50.4215 0.86033 52.5761 0.18152 55.0342 0.0222229Z" fill="#ffffff"/>
    <circle cx="57.8" cy="8.4" r="2.8" fill="#ffffff" opacity="0.5">
      <animate attributeName="opacity" values="0.3;1;0.3" dur="2s" repeatCount="indefinite"/>
    </circle>
  </g>
</svg>
